# xmcd
#
# Track frame offsets:
#	150
#	14313
#	27888
#	47464
#	66705
#	79897
#	95476
#	110101
#	131572
#	149886
#	165896
#
# Disc length: 2408 seconds
#
# Revision: 1
# Processed by: cddbd v1.5.2PL0 Copyright (c) Steve Scherf et al.
# Submitted via: audiograbber 1.83.01
#
DISCID=9909660b
DTITLE=Destini Rawls - I'm movin' in
DYEAR=2001
DGENRE=Blues
TTITLE0=I go dancin'
TTITLE1=Keep on comin' home to you
TTITLE2=Lonely Street
TTITLE3=What's wrong with you
TTITLE4=If you don't love me baby
TTITLE5=Just you baby
TTITLE6=I'm goin' stonecrazy
TTITLE7=I'm movin' in
TTITLE8=Just call me Junior
TTITLE9=This broken heart
TTITLE10=All I ever wanted was you
EXTD=
EXTT0=
EXTT1=
EXTT2=
EXTT3=
EXTT4=
EXTT5=
EXTT6=
EXTT7=
EXTT8=
EXTT9=
EXTT10=
PLAYORDER=
